# xmcd
#
# Track frame offsets:
# 150
# 9901
# 22757
# 29457
# 39541
# 60119
# 67567
# 71954
# 82848
# 88140
# 97823
# 108353
# 119217
# 125641
# 129518
# 142311
# 156291
# 167719
# 177269
# 190863
# 205139
# 218774
# 230996
# 241763
# 264447
# 278725
# 292698
# 305653
# 319974
#
# Disc length: 4439 seconds
#
#
# Revision: 0
# Processed by: cddbd v1.5.2PL0 Copyright (c) Steve Scherf et al.
# Submitted via: FreeRIP 2.931 
#
DISCID=9711551d
DTITLE=Leadbelly - The Definitive Leadbelly - Good Morning Blues
DYEAR=2009
DGENRE=Blues
TTITLE0=Good Morning Blues
TTITLE1=If It Wasn't for Dicky
TTITLE2=Leavin' In The Morning
TTITLE3=Uncle Sam Says
TTITLE4=Hitler Song
TTITLE5=Laura
TTITLE6=Bring A Little Water, Sylvie
TTITLE7=Jim Crow Blues
TTITLE8=Big Fat Woman
TTITLE9=Black Girl
TTITLE10=The Blood Done Signed My Name
TTITLE11=I've A Pretty Flowers
TTITLE12=Blind Lemon (Memorial Record)
TTITLE13=Leadbelly's Dance
TTITLE14=Frankie and Albert (Part 1)
TTITLE15=Frankie and Albert (Part 2)
TTITLE16=In The Evening When The Sun Goes Down
TTITLE17=Corn Bread Rough
TTITLE18=National Defence
TTITLE19=Easy Rider
TTITLE20=New York City
TTITLE21=Little Sally Walker
TTITLE22=Goodnight, Irene
TTITLE23=Scottsboro Boys
TTITLE24=I'm On My Last Go-Roud
TTITLE25=Whoa Back, Buck
TTITLE26=I'm Alone Because I Love You
TTITLE27=It's Tight Like That
TTITLE28=Well You Know I Had To Do It
EXTD=
EXTT0=
EXTT1=
EXTT2=
EXTT3=
EXTT4=
EXTT5=
EXTT6=
EXTT7=
EXTT8=
EXTT9=
EXTT10=
EXTT11=
EXTT12=
EXTT13=
EXTT14=
EXTT15=
EXTT16=
EXTT17=
EXTT18=
EXTT19=
EXTT20=
EXTT21=
EXTT22=
EXTT23=
EXTT24=
EXTT25=
EXTT26=
EXTT27=
EXTT28=
PLAYORDER=
